<?xml version="1.0" encoding="UTF-8"?>
<svg viewBox="0 0 572.83917 561.11786" xmlns="http://www.w3.org/2000/svg">
 <defs>
  <filter id="c">
   <feGaussianBlur stdDeviation="1.58655"/>
  </filter>
  <linearGradient id="b" x1="354.02" x2="330.78" y1="279.08" y2="389.83" gradientUnits="userSpaceOnUse">
   <stop stop-color="#eeeeed" offset="0"/>
   <stop stop-color="#a6a6a6" offset="1"/>
  </linearGradient>
  <linearGradient id="a" x1="349.6" x2="307.89" y1="326.19" y2="456.34" gradientTransform="matrix(.99323 -.11612 .11612 .99323 -28.719 -14.007)" gradientUnits="userSpaceOnUse">
   <stop stop-color="#d5d4d0" offset="0"/>
   <stop stop-color="#f1f1f1" offset=".24539"/>
   <stop stop-color="#fff" offset=".49077"/>
   <stop stop-color="#f0f0f0" offset=".74539"/>
   <stop stop-color="#d4d4d4" offset="1"/>
  </linearGradient>
 </defs>
 <g transform="matrix(2.6795 -2.0127 2.008 2.6972 -1360 117.1)">
  <path transform="matrix(.97342 0 0 .9837 9.4411 5.6773)" d="m311.86303,285.43109 78.61987-8.79105c.36118-.04314.6865.21428.72943.57719l19.22151,94.83909c.04291.36291-.21328.68979-.57447.73292l-86.44178,10.32358c-.36118.04315-.6865-.21429-.72942-.57721l-11.39957-96.37159c-.04294-.3629.21326-.68979.57443-.73293z" fill="none" filter="url(#c)" stroke="#000" stroke-miterlimit="0" stroke-width="2.9518"/>
  <path d="m310.15766,284.32042 80.09478-8.91311c.36795-.04374.69937.21726.74311.58521l19.5821,96.1559c.04372.36795-.21728.69937-.58524.7431l-88.06343,10.46692c-.36795.04374-.69938-.21727-.7431-.58523l-11.61343-97.70968c-.04374-.36794.21727-.69937.58521-.74311z" fill="#fff" stroke="url(#b)" stroke-miterlimit="0" stroke-width=".8"/>
  <path d="m314.09399,286.83787 73.43448-8.16279c.33735-.04011.6419.20521.68288.55002l18.18447,90.13451c.04097.34485-.19762.65475-.53496.69484l-80.73893,9.59986c-.33737.04011-.64192-.20522-.68288-.55005l-10.88003-91.57156c-.04098-.34481.19763-.65471.53497-.69483z" fill="url(#a)"/>
 </g>
 <g transform="matrix(3.0152 -1.4626 1.4547 3.0317 -1290.8 -181.54)">
  <path transform="matrix(.97342 0 0 .9837 9.4411 5.6773)" d="m311.86303,285.43109 78.61987-8.79105c.36118-.04314.6865.21428.72943.57719l19.22151,94.83909c.04291.36291-.21328.68979-.57447.73292l-86.44178,10.32358c-.36118.04315-.6865-.21429-.72942-.57721l-11.39957-96.37159c-.04294-.3629.21326-.68979.57443-.73293z" fill="none" filter="url(#c)" stroke="#000" stroke-miterlimit="0" stroke-width="2.9518"/>
  <path d="m310.15766,284.32042 80.09478-8.91311c.36795-.04374.69937.21726.74311.58521l19.5821,96.1559c.04372.36795-.21728.69937-.58524.7431l-88.06343,10.46692c-.36795.04374-.69938-.21727-.7431-.58523l-11.61343-97.70968c-.04374-.36794.21727-.69937.58521-.74311z" fill="#fff" stroke="url(#b)" stroke-miterlimit="0" stroke-width=".8"/>
  <path d="m314.09399,286.83787 73.43448-8.16279c.33735-.04011.6419.20521.68288.55002l18.18447,90.13451c.04097.34485-.19762.65475-.53496.69484l-80.73893,9.59986c-.33737.04011-.64192-.20522-.68288-.55005l-10.88003-91.57156c-.04098-.34481.19763-.65471.53497-.69483z" fill="url(#a)"/>
 </g>
 <g transform="matrix(4.0132 0 0 4.0132 -1125.1 -1066.5)">
  <path transform="matrix(.97342 0 0 .9837 9.4411 5.6773)" d="m311.86303,285.43109 78.61987-8.79105c.36118-.04314.6865.21428.72943.57719l19.22151,94.83909c.04291.36291-.21328.68979-.57447.73292l-86.44178,10.32358c-.36118.04315-.6865-.21429-.72942-.57721l-11.39957-96.37159c-.04294-.3629.21326-.68979.57443-.73293z" fill="none" filter="url(#c)" stroke="#000" stroke-miterlimit="0" stroke-width="2.9518"/>
  <path d="m310.15766,284.32042 80.09478-8.91311c.36795-.04374.69937.21726.74311.58521l19.5821,96.1559c.04372.36795-.21728.69937-.58524.7431l-88.06343,10.46692c-.36795.04374-.69938-.21727-.7431-.58523l-11.61343-97.70968c-.04374-.36794.21727-.69937.58521-.74311z" fill="#fff" stroke="url(#b)" stroke-miterlimit="0" stroke-width=".8"/>
  <path d="m314.09399,286.83787 73.43448-8.16279c.33735-.04011.6419.20521.68288.55002l18.18447,90.13451c.04097.34485-.19762.65475-.53496.69484l-80.73893,9.59986c-.33737.04011-.64192-.20522-.68288-.55005l-10.88003-91.57156c-.04098-.34481.19763-.65471.53497-.69483z" fill="url(#a)"/>
 </g>
</svg>
