<svg xmlns="http://www.w3.org/2000/svg" width="88.031" height="69.47"><path d="M44.014 53.1a1.727 1.727 0 01-1.214-.5 1.681 1.681 0 010-2.4 1.785 1.785 0 012.428 0 1.7 1.7 0 01-1.214 2.9zm22.665-16.45h-2.728a1.13 1.13 0 110-2.26h2.728a1.13 1.13 0 110 2.26zM86.894 0H1.134A1.145 1.145 0 00-.012 1.14V56.8a1.143 1.143 0 001.146 1.13h29.084l-6.536 9.78a1.134 1.134 0 00-.052 1.17 1.148 1.148 0 001.008.59h50.509a1.136 1.136 0 001.146-1.13V57.93h10.6a1.139 1.139 0 001.146-1.13V1.14A1.141 1.141 0 0086.894 0zM54.341 67.2H26.769l6.2-9.27h21.374v9.27zm0-11.53H2.279v-8.18h52.062v8.18zM74.003 67.2H56.631v-4.36h17.371v4.36zm0-6.63H56.631V39.86h17.371v20.71zm0-22.98H56.631v-4.1h17.371v4.1zm1.145-6.37H55.487a1.144 1.144 0 00-1.146 1.14v12.86H2.279V2.27H85.75v42.95h-9.456V32.35a1.143 1.143 0 00-1.146-1.13zm10.6 24.45h-9.456v-8.18h9.456v8.18zm-20.433 8.17a1.14 1.14 0 11-1.155 1.14 1.147 1.147 0 011.156-1.14z" fill="#fff" fill-rule="evenodd"/></svg>