<svg xmlns="http://www.w3.org/2000/svg" width="69.15" height="67.87"><path d="M69.13 34.54a1.018 1.018 0 00-.03-.35c-.03-.25-.03-1.46-.03-2.87a1.184 1.184 0 00-.02-.26 5.818 5.818 0 00-1.59-3.17 6.424 6.424 0 00-4.76-1.6H44.04a11.552 11.552 0 001.32-4.25c.07-.74.12-3.69.12-7.53a1.8 1.8 0 00-.02-.22l-1.41-9.77a5.686 5.686 0 00-1.54-2.92 5.552 5.552 0 00-7.78 0 5.276 5.276 0 00-1.57 3.93l-1.78 9.93c-2.66 8.18-6.61 13.84-11.71 16.93a3.432 3.432 0 00-.53-.72 3.633 3.633 0 00-2.77-.97H3.92a3.7 3.7 0 00-2.87.99 3.929 3.929 0 00-1.07 2.94v29.32a3.622 3.622 0 003.89 3.92h12.5a3.52 3.52 0 003.58-2.32 19.141 19.141 0 007.36 2.1h30.17a5.649 5.649 0 004.21-1.81l.44-.46a6.624 6.624 0 001.34-3.86 5.88 5.88 0 00-1.44-3.9 6.58 6.58 0 001.8-1.25l.25-.31a6.314 6.314 0 001.43-3.97 6.2 6.2 0 00-.97-3.2 6.636 6.636 0 001.63-1.25 6.208 6.208 0 001.61-4.14 5.877 5.877 0 00-1.47-3.99 5.75 5.75 0 001.18-.93 6.274 6.274 0 001.64-4.04zM17.27 63.95c0 .77-.15.92-.9.92H3.87c-.83 0-.95-.19-.95-.92V34.63a1.2 1.2 0 01.17-.79 1.256 1.256 0 01.78-.14h12.55a1.138 1.138 0 01.68.13 1.255 1.255 0 01.17.8v29.32zm48.11-27.46a2.666 2.666 0 01-2.03.78l-.75.05a1.5 1.5 0 00-1.37 1.5v.22a1.493 1.493 0 001.2 1.47 2.819 2.819 0 011.55.85 2.874 2.874 0 01.87 2.14 3.216 3.216 0 01-.87 2.14 2.638 2.638 0 01-1.97.88l-.64-.05a1.492 1.492 0 00-1.55 1.15 1.514 1.514 0 00.88 1.74 2.549 2.549 0 011 .75 2.813 2.813 0 01.88 1.97 3.231 3.231 0 01-.73 2.03l-.15.2a2.882 2.882 0 01-2.07.86 1.372 1.372 0 00-.34.07 1.45 1.45 0 00-1.8.96 1.513 1.513 0 00.73 1.82 14.607 14.607 0 011.4 1.31 2.924 2.924 0 01.92 2.12 3.476 3.476 0 01-.6 1.93l-.32.33a2.821 2.821 0 01-2.14.94l-30.03.01a15.515 15.515 0 01-7.24-2.47V35.51c6.22-3.34 10.93-9.77 13.99-19.2a1.462 1.462 0 00.05-.2l1.83-10.2a1.76 1.76 0 00.02-.4 2.257 2.257 0 01.74-1.82 2.676 2.676 0 013.6.03 2.68 2.68 0 01.72 1.31l1.38 9.59c0 4.46-.06 6.71-.09 7.1a8.381 8.381 0 01-2.39 5.01 1.548 1.548 0 00-.32 1.64 1.474 1.474 0 001.36.93h21.6a3.773 3.773 0 012.68.72 2.69 2.69 0 01.76 1.44c0 1.89 0 2.64.05 3.07a3.173 3.173 0 01-.81 1.96z" fill="#fff" fill-rule="evenodd"/></svg>