<svg xmlns="http://www.w3.org/2000/svg" width="41" height="40"><path d="M25.492 24.78l-3.214-3.35.909-.95 3.213 3.35-.908.95zM36.228 40L23.109 26.32l4.765-4.98 13.118 13.69L36.228 40zm-11.3-13.68l11.3 11.79 2.947-3.08-11.3-11.79-2.947 3.08zM7.184 9.96L2.647 2.07 4.641-.01l7.562 4.74-5.019 5.23zm-2.92-7.68L7.438 7.8l2.693-2.81L4.84 1.68l-.576.6zm12.875 13.78L8.785 7.34l.908-.94 8.354 8.71-.908.95zM1.9 39.12L0 37.25l1.28-4.58.114-.12 21.343-22.6V7.54c0-3.35 1.505-7.33 8.675-7.33h.98l-2.469 5.93 1.953 2.1 5.641-2.76v1.05c0 7.49-3.844 9.06-7.069 9.06h-2.307L6.314 37.99l-4.407 1.13zm-.452-2.28l.824.81 3.385-.88 21.951-22.52h2.833c3.56 0 5.492-2.24 5.753-6.65l-4.61 2.26-3.189-3.43 2.019-4.85c-4.3.25-6.4 2.21-6.4 5.96v2.96l-21.6 22.87-.969 3.47z" fill="#8c9494" fill-rule="evenodd"/></svg>