<svg xmlns="http://www.w3.org/2000/svg" width="39" height="39"><path d="M39 39H-.007V-.01L39 39zM1.2 37.79h34.873L1.2 2.92v34.87zm23.263-4.24h-16.6v-16.6l16.6 16.6zM9.072 32.34h12.467L9.072 19.87v12.47zM4.833 14.17H1.2v-1.21h3.633v1.21zm-1.211 4.84H1.2V17.8h2.422v1.21zm1.211 4.85H1.2v-1.21h3.633v1.21zM3.622 28.7H1.2v-1.21h2.422v1.21zm1.211 4.85H1.2v-1.21h3.633v1.21zm34.139-5.22l-5.986-1.5L10.638 4.48l4.49-4.49 22.348 22.35 1.5 5.99zm-5.367-2.59l3.7.92-.926-3.7L15.125 1.7l-2.777 2.78 21.254 21.26zM15.556 8.54l-.856-.85 3.633-3.64.857.86-3.634 3.63z" fill="#8c9494" fill-rule="evenodd"/></svg>