<svg xmlns="http://www.w3.org/2000/svg" width="44" height="34.88"><path data-name="Shape 3 copy" d="M22.113 26.61a.854.854 0 01-.606-1.46.9.9 0 011.214 0 .863.863 0 01.251.61.827.827 0 01-.251.6.858.858 0 01-.608.25zm11.329-8.28h-1.364a.574.574 0 01-.572-.57.568.568 0 01.572-.57h1.364a.568.568 0 01.573.57.574.574 0 01-.573.57zM43.417.02H.583a.569.569 0 00-.572.57v27.89a.575.575 0 00.572.57h14.635l-3.267 4.93a.568.568 0 00.478.88h25.246a.569.569 0 00.572-.57v-5.24h5.17a.573.573 0 00.572-.57V.59a.566.566 0 00-.572-.57zm-16.142 33.7H13.494l3.1-4.67h10.684v4.67zm0-5.81H1.005v-3.88h26.27v3.88zm9.828 5.81H28.42v-2.2h8.68v2.2zm0-3.34H28.42V19.94h8.68v10.44zm0-11.58H28.42v-2.07h8.68v2.07zm.572-3.21h-9.827a.575.575 0 00-.573.57v6.86H.989V1.01h41.985v22.02h-4.727v-6.87a.575.575 0 00-.572-.57zm5.3 12.32h-4.727V24h4.727v3.91zm-10.213 4.11a.58.58 0 11-.577.58.579.579 0 01.576-.58z" fill="#8c9494" fill-rule="evenodd"/></svg>