<svg xmlns="http://www.w3.org/2000/svg" width="81.75" height="69.47"><path d="M4.303 69.47a4.339 4.339 0 01-4.3-4.34V4.35a4.333 4.333 0 014.3-4.34h73.155a4.332 4.332 0 014.3 4.34v60.78a4.339 4.339 0 01-4.3 4.34H4.303zM2.151 13.03H79.61V4.35a2.162 2.162 0 00-2.152-2.17H4.303a2.162 2.162 0 00-2.152 2.17v8.68zM79.61 15.2H2.151v49.93a2.169 2.169 0 002.152 2.17h73.155a2.169 2.169 0 002.152-2.17V15.2zM7.53 5.43A1.856 1.856 0 019.682 7.6c0 1.52-.646 2.18-2.152 2.18S5.378 9.12 5.378 7.6A1.857 1.857 0 017.53 5.43zm7.532 0c1.5 0 2.151.65 2.151 2.17s-.646 2.18-2.151 2.18-2.152-.66-2.152-2.18.645-2.17 2.152-2.17zm7.53 0c1.5 0 2.151.65 2.151 2.17s-.646 2.18-2.151 2.18-2.152-.66-2.152-2.18.644-2.17 2.152-2.17z" fill="#fff" fill-rule="evenodd"/></svg>