<?xml version="1.0" standalone="no"?>
<!DOCTYPE svg PUBLIC "-//W3C//DTD SVG 20010904//EN"
 "http://www.w3.org/TR/2001/REC-SVG-20010904/DTD/svg10.dtd">
<svg version="1.0" xmlns="http://www.w3.org/2000/svg"
 width="500.000000pt" height="500.000000pt" viewBox="0 0 500.000000 500.000000"
 preserveAspectRatio="xMidYMid meet">
<metadata>
Created by potrace 1.11, written by Peter Selinger 2001-2013
</metadata>
<g transform="translate(0.000000,500.000000) scale(0.100000,-0.100000)"
fill="#000000" stroke="none">
<path d="M1247 4993 c689 -2 1817 -2 2505 0 689 1 126 2 -1252 2 -1378 0
-1941 -1 -1253 -2z"/>
<path d="M2843 4815 c0 -27 2 -38 4 -22 2 15 2 37 0 50 -2 12 -4 0 -4 -28z"/>
<path d="M4951 4814 c0 -11 3 -14 6 -6 3 7 2 16 -1 19 -3 4 -6 -2 -5 -13z"/>
<path d="M2190 4810 c0 -6 7 -10 15 -10 8 0 15 2 15 4 0 2 -7 6 -15 10 -8 3
-15 1 -15 -4z"/>
<path d="M3188 4803 c7 -3 16 -2 19 1 4 3 -2 6 -13 5 -11 0 -14 -3 -6 -6z"/>
<path d="M4108 4803 c7 -3 16 -2 19 1 4 3 -2 6 -13 5 -11 0 -14 -3 -6 -6z"/>
<path d="M3131 4784 c0 -11 3 -14 6 -6 3 7 2 16 -1 19 -3 4 -6 -2 -5 -13z"/>
<path d="M0 2320 l0 -2320 2500 0 2500 0 0 1675 c0 1420 -2 1675 -14 1675 -8
0 -16 7 -20 15 -4 10 1 15 14 15 20 0 20 10 20 630 l0 630 -2500 0 -2500 0 0
-2320z m800 2139 c4 -16 14 -25 30 -27 40 -6 50 -21 50 -78 0 -43 -4 -56 -22
-68 -12 -9 -30 -16 -40 -16 -13 0 -18 -8 -18 -26 0 -33 -33 -30 -38 4 -2 14
-10 22 -23 22 -24 0 -59 55 -59 93 0 22 -4 28 -17 25 -14 -2 -19 -15 -21 -56
-3 -44 -6 -53 -20 -50 -13 2 -18 16 -20 56 -3 44 -6 52 -23 52 -16 0 -19 -7
-19 -40 0 -47 -27 -80 -65 -80 -20 0 -25 -5 -25 -25 0 -18 -5 -25 -20 -25 -19
0 -20 7 -20 105 l0 105 138 -1 c203 -1 192 -3 192 24 0 44 30 49 40 6z m1838
-77 c2 -82 0 -102 -11 -102 -8 0 -28 -3 -45 -6 -41 -8 -72 23 -72 74 0 50 23
82 61 82 24 0 29 4 29 23 0 27 9 39 24 34 7 -2 12 -45 14 -105z m950 90 c2 -6
-11 -20 -29 -31 l-32 -19 29 -4 c20 -2 33 -12 43 -33 l15 -30 11 28 c7 16 18
33 26 38 21 13 73 11 88 -3 11 -10 14 -10 18 0 3 8 31 12 89 12 l84 0 0 -33
c0 -38 6 -48 26 -40 8 3 14 19 14 40 0 30 3 34 23 31 21 -3 22 -7 19 -73 -2
-38 -7 -74 -12 -79 -12 -12 -30 2 -30 25 0 14 -7 19 -28 19 -34 0 -52 16 -52
47 0 18 -6 23 -24 23 -21 0 -23 -4 -25 -52 -2 -92 -42 -92 -43 1 0 44 -3 51
-20 51 -17 0 -19 -5 -13 -30 5 -25 1 -35 -23 -60 -46 -45 -92 -36 -117 23
l-13 32 -7 -28 c-14 -55 -72 -73 -112 -35 -19 18 -23 32 -23 78 0 61 14 82 68
107 31 13 44 12 50 -5z m-3348 -97 c0 -88 -1 -95 -20 -95 -18 0 -20 7 -20 75
l0 75 -30 0 -29 0 -3 -77 c-2 -61 -6 -78 -18 -78 -12 0 -16 19 -18 98 l-3 97
71 0 70 0 0 -95z m1473 80 c1 -5 -13 -11 -30 -13 -27 -3 -33 -7 -33 -28 0 -19
5 -24 26 -24 33 0 30 -33 -4 -38 -17 -3 -22 -10 -22 -31 0 -31 -17 -52 -36
-44 -11 4 -14 29 -14 100 l0 94 55 -3 c30 -2 56 -7 58 -13z m454 -5 c3 -11 12
-20 19 -20 19 0 18 -26 -1 -34 -10 -3 -15 -19 -15 -46 0 -33 3 -40 20 -40 26
0 26 -27 0 -35 -37 -12 -60 11 -60 62 0 32 -5 50 -17 59 -16 13 -16 15 -2 27
8 6 18 20 22 30 9 23 28 22 34 -3z m-1779 -45 c11 -14 19 -33 17 -43 -2 -9 -4
-25 -4 -34 -1 -24 -37 -58 -60 -58 -11 0 -32 10 -46 23 -33 27 -37 87 -9 118
25 28 78 25 102 -6z m634 8 c12 -11 18 -30 18 -59 0 -34 -5 -47 -26 -63 -33
-26 -55 -26 -84 -3 -30 24 -33 91 -6 121 23 25 72 28 98 4z m166 -51 c2 -39
-2 -69 -9 -78 -19 -23 -34 0 -35 54 -1 61 -26 66 -34 7 -7 -50 -16 -65 -41
-65 -20 0 -26 24 -9 35 6 3 10 21 10 38 0 70 7 78 64 75 l51 -3 3 -63z m70 34
l4 -29 19 32 c25 42 55 41 62 -1 7 -40 3 -101 -7 -117 -12 -19 -36 7 -36 38
l-1 26 -15 -27 c-18 -34 -50 -53 -60 -37 -8 14 -13 118 -6 137 8 23 37 8 40
-22z m216 28 c27 -10 39 -67 22 -107 -17 -41 -46 -54 -86 -37 -31 13 -43 37
-42 83 1 53 52 82 106 61z m339 -6 c4 -10 7 -10 18 0 19 17 69 15 91 -5 18
-16 25 -87 10 -109 -14 -21 -52 -34 -78 -28 -30 8 -56 59 -47 92 4 17 1 22
-15 22 -24 0 -32 -18 -32 -70 0 -23 -5 -40 -14 -43 -22 -9 -26 2 -26 80 l0 73
44 0 c26 0 46 -5 49 -12z m265 0 c12 -12 17 -129 6 -141 -3 -3 -12 -3 -20 0
-10 3 -14 22 -14 57 0 29 -3 56 -7 59 -15 16 -33 -18 -33 -63 0 -51 -5 -61
-26 -53 -10 4 -14 25 -14 79 l0 74 48 0 c26 0 53 -5 60 -12z m246 -10 c9 -12
16 -33 16 -45 0 -20 -5 -23 -40 -23 -30 0 -40 -4 -40 -16 0 -12 8 -15 33 -12
41 4 44 -22 4 -36 -22 -8 -32 -6 -55 11 -34 25 -43 94 -16 124 24 27 79 25 98
-3z m152 11 c10 -17 14 -113 5 -128 -5 -8 -16 -11 -25 -8 -12 5 -16 20 -16 62
0 85 -36 68 -42 -20 -2 -36 -7 -50 -18 -50 -12 0 -16 17 -18 78 l-3 77 55 0
c30 0 58 -5 62 -11z m382 -2 c6 -7 14 -31 17 -53 5 -31 2 -45 -15 -67 -12 -16
-31 -27 -45 -27 -17 0 -25 -6 -27 -22 -2 -15 -10 -23 -23 -23 -18 0 -20 8 -23
89 -2 49 -1 95 2 103 7 17 100 18 114 0z m140 1 c7 -7 12 -33 12 -58 l0 -47
51 -1 c35 -1 49 3 46 11 -2 7 -13 13 -25 15 -28 4 -29 32 -2 39 11 3 20 10 20
15 0 6 -11 7 -25 4 -33 -9 -50 1 -34 20 15 18 83 18 98 0 6 -7 11 -24 10 -37
0 -13 2 -34 6 -45 14 -44 -57 -80 -106 -54 -11 6 -24 8 -30 4 -24 -15 -98 -13
-114 2 -33 34 -3 94 48 94 10 0 15 5 12 10 -4 6 -18 9 -33 8 -18 -2 -27 2 -30
15 -3 14 4 17 40 17 24 0 49 -5 56 -12z m298 -5 c7 -10 14 -28 14 -40 0 -27 7
-28 34 -8 11 8 28 15 39 15 10 0 15 5 12 10 -4 6 -18 9 -33 8 -18 -2 -27 2
-30 15 -3 14 4 17 40 17 54 0 68 -13 68 -64 0 -23 4 -47 9 -55 16 -26 1 -37
-49 -38 -36 0 -54 4 -66 18 -16 18 -17 18 -42 -1 -13 -11 -35 -20 -48 -20 -19
0 -24 -5 -24 -25 0 -18 -5 -25 -20 -25 -19 0 -22 10 -22 75 0 8 0 42 1 75 l1
60 51 0 c38 0 55 -5 65 -17z m795 -13 l6 -25 13 28 c9 18 21 27 37 27 23 0 24
-2 21 -77 -2 -61 -6 -78 -18 -78 -9 0 -16 11 -18 28 -3 28 -22 39 -22 13 0
-23 -41 -48 -57 -34 -14 11 -19 129 -6 142 14 13 37 1 44 -24z m158 8 l8 -22
12 22 c10 20 20 22 86 22 87 0 91 -4 96 -94 l4 -60 -87 -2 c-73 -2 -90 1 -98
14 -9 15 -9 15 -10 -1 0 -14 -7 -18 -27 -15 -28 3 -28 4 -31 81 -3 72 -2 77
18 77 12 0 24 -9 29 -22z m516 -337 c-9 -29 -23 -17 -17 14 3 17 8 23 14 17 6
-6 7 -20 3 -31z m-93 -93 c4 -7 8 -30 8 -50 0 -33 3 -37 21 -35 28 3 36 -19
11 -27 -16 -5 -20 -19 -25 -74 -3 -37 -10 -79 -16 -95 l-11 -27 -437 2 -438 3
-3 149 c-1 82 2 153 7 160 14 17 872 11 883 -6z m-1686 -113 c4 -8 10 -15 15
-15 5 0 9 7 9 15 0 8 7 15 15 15 10 0 15 -10 15 -31 0 -17 4 -28 10 -24 5 3 7
12 3 20 -8 22 43 19 56 -2 10 -17 10 -17 11 0 0 15 7 18 33 15 29 -3 32 -6 32
-35 0 -42 -18 -47 -26 -8 l-6 30 -4 -30 c-4 -30 -4 -30 -71 -31 -60 -2 -68 0
-68 17 0 26 -16 24 -23 -2 -9 -35 -27 -11 -27 37 0 43 15 59 26 29z m284 -18
c0 -7 4 -7 12 1 14 14 48 16 48 3 0 -5 -7 -11 -15 -15 -22 -8 -18 -26 5 -26
19 0 24 10 21 38 -3 21 139 16 168 -7 31 -24 25 -55 -12 -59 -24 -3 -27 0 -27
27 0 38 -17 41 -22 4 -4 -39 -28 -42 -28 -4 0 17 -4 31 -10 31 -5 0 -10 -13
-10 -30 0 -29 -1 -29 -55 -29 -30 1 -58 5 -61 10 -3 5 -11 6 -17 2 -6 -4 -23
-7 -37 -7 -21 0 -25 5 -28 35 -3 34 -2 35 33 36 19 1 35 -4 35 -10z m1695
-127 c0 -7 -6 -15 -12 -17 -8 -3 -13 4 -13 17 0 13 5 20 13 18 6 -3 12 -11 12
-18z m-68 -40 c20 0 11 -24 -10 -28 -13 -3 -17 4 -16 25 0 15 3 22 6 16 2 -7
11 -13 20 -13z m-119 -58 c2 -7 -2 -10 -12 -6 -9 3 -16 11 -16 16 0 13 23 5
28 -10z m-599 -116 c6 -8 10 -20 9 -27 -4 -18 89 -27 192 -20 41 3 102 4 135
3 33 -1 133 -3 222 -4 98 -2 166 -7 173 -14 7 -7 10 -332 10 -1079 0 -587 -2
-1070 -4 -1072 -3 -3 -35 12 -73 32 -37 21 -80 43 -94 51 -54 29 -60 44 -49
115 39 237 36 343 -11 488 -16 48 -19 65 -9 71 9 5 9 13 1 28 -24 45 -123 363
-136 437 -9 48 -31 116 -55 168 -22 48 -40 93 -40 100 0 18 -52 139 -94 220
-20 38 -36 74 -36 81 0 25 -127 161 -205 218 -104 78 -134 92 -230 111 -92 17
-146 15 -180 -7 -13 -9 -35 -16 -49 -16 -13 0 -57 -16 -97 -35 -41 -19 -80
-35 -89 -35 -28 0 -139 -80 -182 -132 -24 -27 -68 -78 -99 -112 -69 -75 -122
-189 -150 -324 -10 -51 -21 -98 -25 -103 -3 -5 -16 -80 -30 -167 -35 -220 -38
-463 -8 -542 12 -30 27 -71 34 -90 7 -19 18 -48 26 -65 15 -34 13 -270 -3
-286 -12 -12 -101 -34 -193 -48 -103 -16 -167 -36 -212 -68 -33 -22 -38 -31
-36 -59 1 -18 -1 -36 -4 -40 -14 -13 -46 8 -59 38 -16 39 -3 62 40 66 l31 3
-2 447 -3 447 -24 3 c-34 5 -50 24 -44 55 4 22 37 46 52 38 16 -10 20 88 21
543 0 286 2 522 5 524 3 4 1095 15 1160 12 107 -4 295 -4 315 1 14 3 24 12 22
19 -4 19 18 40 43 40 12 0 28 -6 34 -14z m-1787 -64 c13 -13 11 -1692 -3
-1708 -10 -12 -197 -14 -1136 -13 -656 0 -1135 4 -1149 9 l-24 10 2 852 3 853
830 5 c1019 6 1465 4 1477 -8z m1315 -802 c62 -37 112 -53 98 -31 -18 30 65
27 138 -4 13 -5 17 -2 17 11 1 18 1 18 15 0 13 -17 24 -18 110 -14 91 5 98 4
125 -19 21 -17 31 -36 36 -71 3 -26 22 -85 42 -132 l36 -85 2 -175 c2 -122 -2
-194 -12 -237 -23 -106 -73 -221 -124 -288 -45 -57 -50 -69 -60 -146 -6 -46
-16 -91 -21 -101 -14 -25 -108 -93 -149 -107 -19 -7 -75 -15 -125 -18 -82 -5
-93 -3 -117 16 -31 25 -62 118 -55 165 4 27 -3 39 -52 91 -30 33 -67 66 -81
74 -70 38 -114 114 -111 191 2 55 -16 166 -34 200 -7 14 -15 47 -19 74 -3 27
-10 54 -15 60 -13 16 -29 101 -37 186 -5 61 -3 78 9 89 13 10 21 9 45 -3 23
-12 37 -13 66 -5 33 9 51 29 26 29 -5 0 -10 18 -10 40 0 23 5 40 11 40 7 0 9
-9 6 -21 -4 -16 2 -24 29 -36 31 -16 36 -16 50 -1 9 9 20 35 24 57 6 33 4 43
-9 51 -13 8 -11 9 10 10 50 0 76 62 54 131 -9 28 9 24 82 -21z m-147 -21 c46
-26 53 -45 13 -34 -16 3 -54 10 -85 14 -61 7 -85 21 -73 41 11 18 98 5 145
-21z m-77 -70 c63 -13 67 -29 6 -29 -22 0 -58 -9 -79 -20 l-40 -20 0 33 c0 19
3 37 7 40 9 10 42 9 106 -4z m77 -100 c0 -5 -4 -9 -10 -9 -5 0 -10 7 -10 16 0
8 5 12 10 9 6 -3 10 -10 10 -16z m-1020 -320 c0 -24 -23 -21 -28 4 -2 10 3 17
12 17 10 0 16 -9 16 -21z m0 -590 c0 -10 -6 -19 -14 -19 -17 0 -28 38 -12 43
17 6 26 -2 26 -24z m-770 -39 c0 -5 -2 -10 -4 -10 -3 0 -8 5 -11 10 -3 6 -1
10 4 10 6 0 11 -4 11 -10z m395 -74 c136 -1 218 -5 225 -12 7 -7 9 -139 8
-415 l-3 -404 -535 -2 c-294 -2 -541 1 -548 5 -9 6 -13 63 -15 228 -2 186 -4
219 -17 220 -8 1 -22 2 -31 2 -20 2 -40 44 -29 62 7 12 13 12 37 0 15 -8 31
-16 36 -18 4 -2 7 69 7 157 0 159 0 162 23 170 12 5 143 8 290 6 190 -1 273 1
289 10 16 8 27 8 36 2 7 -6 102 -11 227 -11z m-1149 -2 c78 -1 147 -5 153 -8
8 -5 11 -124 11 -405 0 -326 -2 -401 -14 -410 -19 -16 -1053 -16 -1073 0 -10
9 -13 88 -13 410 0 219 4 400 9 403 4 3 170 6 367 7 198 1 368 5 379 9 11 4
24 5 30 2 5 -3 73 -7 151 -8z m3321 -500 c3 -8 1 -26 -5 -39 -10 -22 -15 -23
-37 -15 -15 6 -46 10 -71 10 -24 0 -44 3 -44 8 1 4 15 17 33 29 39 26 115 31
124 7z m-3579 -371 c-2 -10 -10 -18 -18 -18 -8 0 -16 8 -18 18 -2 12 3 17 18
17 15 0 20 -5 18 -17z m557 7 c11 -17 -5 -32 -21 -19 -8 6 -14 15 -14 20 0 12
27 11 35 -1z m453 -95 c-3 -3 -9 2 -12 12 -6 14 -5 15 5 6 7 -7 10 -15 7 -18z
m-148 -40 c7 -9 8 -15 2 -15 -5 0 -12 7 -16 15 -3 8 -4 15 -2 15 2 0 9 -7 16
-15z m-236 -51 c4 -11 1 -14 -11 -12 -10 2 -19 11 -21 21 -4 21 24 13 32 -9z
m-998 -97 c1 -11 -5 -17 -16 -17 -21 0 -34 26 -17 34 19 7 30 1 33 -17z m-277
-118 c27 -10 31 -15 31 -48 0 -20 -5 -42 -12 -49 -30 -30 -98 -1 -98 41 0 16
35 67 45 67 1 0 16 -5 34 -11z m1511 -110 c0 -6 -4 -7 -10 -4 -5 3 -10 11 -10
16 0 6 5 7 10 4 6 -3 10 -11 10 -16z"/>
<path d="M483 4393 c-19 -7 -16 -72 3 -80 18 -7 34 12 34 43 0 25 -19 43 -37
37z"/>
<path d="M728 4366 c-5 -26 7 -56 22 -56 6 0 10 18 10 40 0 45 -24 57 -32 16z"/>
<path d="M804 4376 c-9 -25 0 -61 16 -61 10 0 16 12 18 38 2 28 0 37 -13 37
-8 0 -18 -6 -21 -14z"/>
<path d="M2561 4387 c-24 -24 -6 -85 23 -74 10 4 16 18 16 41 0 36 -19 53 -39
33z"/>
<path d="M3683 4393 c-19 -7 -16 -72 3 -80 17 -6 34 12 34 38 0 22 -23 48 -37
42z"/>
<path d="M3518 4365 c-10 -21 -9 -29 5 -42 22 -22 40 -6 35 33 -4 37 -25 42
-40 9z"/>
<path d="M321 4391 c-7 -5 -11 -22 -9 -42 2 -26 8 -34 23 -34 15 0 21 8 23 31
3 34 -16 58 -37 45z"/>
<path d="M954 4386 c-3 -8 -4 -27 -2 -43 4 -40 42 -40 46 0 5 42 -31 77 -44
43z"/>
<path d="M1421 4387 c-20 -20 -10 -77 15 -77 18 0 32 28 26 55 -5 28 -25 38
-41 22z"/>
<path d="M1854 4386 c-3 -8 -4 -27 -2 -43 4 -40 42 -40 46 0 5 42 -31 77 -44
43z"/>
<path d="M2266 4393 c-11 -11 -6 -23 9 -23 8 0 15 4 15 9 0 13 -16 22 -24 14z"/>
<path d="M2797 4394 c-4 -4 -7 -25 -7 -46 0 -32 3 -39 18 -36 13 2 17 13 17
42 0 37 -13 55 -28 40z"/>
<path d="M2935 4331 c-3 -5 -1 -12 5 -16 12 -7 30 2 30 16 0 12 -27 12 -35 0z"/>
<path d="M3233 4393 c-19 -7 -16 -72 3 -80 18 -7 34 12 34 43 0 25 -19 43 -37
37z"/>
<path d="M3365 4331 c-3 -5 -1 -12 5 -16 12 -7 30 2 30 16 0 12 -27 12 -35 0z"/>
<path d="M4312 4398 c-15 -15 -16 -54 -2 -63 6 -3 10 1 10 9 0 10 16 20 44 28
49 13 53 33 5 23 -18 -4 -29 -3 -29 4 0 14 -13 14 -28 -1z"/>
<path d="M4377 4333 c-12 -11 -8 -23 7 -23 8 0 16 7 20 15 5 15 -14 21 -27 8z"/>
<path d="M4142 3820 c0 -14 2 -19 5 -12 2 6 2 18 0 25 -3 6 -5 1 -5 -13z"/>
<path d="M4512 3820 c0 -14 2 -19 5 -12 2 6 2 18 0 25 -3 6 -5 1 -5 -13z"/>
<path d="M490 3292 c-53 -18 -54 -122 -1 -122 13 0 13 2 -1 13 -38 30 -27 97
16 97 37 0 51 -64 20 -94 -13 -13 -13 -16 -1 -16 8 0 20 14 27 30 22 52 -14
107 -60 92z"/>
<path d="M222 3278 c-21 -21 -15 -85 10 -102 29 -21 35 -13 9 13 -26 26 -27
55 -1 81 13 13 15 20 7 20 -7 0 -18 -5 -25 -12z"/>
<path d="M283 3269 c21 -30 22 -63 1 -83 -13 -13 -13 -16 -1 -16 8 0 20 14 28
31 10 27 10 36 -2 57 -8 14 -20 27 -28 30 -11 4 -10 -1 2 -19z"/>
<path d="M350 3230 c0 -47 3 -60 15 -60 12 0 13 3 3 19 -9 15 -9 23 2 36 12
14 12 18 -1 25 -16 11 -5 26 26 33 13 3 9 5 -12 6 l-33 1 0 -60z"/>
<path d="M645 3257 c-4 -19 -5 -47 -2 -63 3 -22 4 -18 6 14 1 51 21 53 33 3 9
-34 22 -34 31 -1 4 16 2 19 -7 11 -10 -8 -16 -1 -25 29 -14 49 -28 51 -36 7z"/>
<path d="M720 3265 c0 -15 4 -24 10 -20 6 4 10 -10 10 -35 0 -23 4 -39 8 -36
12 7 -2 109 -15 114 -8 2 -13 -6 -13 -23z"/>
<path d="M860 3266 c0 -21 -5 -26 -25 -26 -18 0 -25 5 -25 20 0 11 -4 20 -10
20 -5 0 -10 -25 -10 -55 0 -30 5 -55 10 -55 6 0 10 11 10 25 0 20 5 25 25 25
20 0 25 -5 25 -26 0 -14 4 -23 10 -19 12 8 11 103 -2 111 -4 3 -8 -6 -8 -20z"/>
<path d="M920 3230 c0 -44 4 -60 14 -60 9 0 12 8 9 24 -4 19 0 25 18 29 l24 4
-22 8 c-13 4 -23 15 -23 25 0 11 9 20 23 23 16 3 13 5 -10 6 l-33 1 0 -60z"/>
<path d="M408 3214 c3 -16 -1 -30 -9 -35 -11 -7 -11 -9 3 -9 23 0 31 16 24 46
-8 32 -25 31 -18 -2z"/>
<path d="M441 2974 c0 -11 3 -14 6 -6 3 7 2 16 -1 19 -3 4 -6 -2 -5 -13z"/>
<path d="M732 2970 c0 -14 2 -19 5 -12 2 6 2 18 0 25 -3 6 -5 1 -5 -13z"/>
<path d="M891 2974 c0 -11 3 -14 6 -6 3 7 2 16 -1 19 -3 4 -6 -2 -5 -13z"/>
<path d="M1012 2970 c0 -14 2 -19 5 -12 2 6 2 18 0 25 -3 6 -5 1 -5 -13z"/>
<path d="M2152 2970 c0 -14 2 -19 5 -12 2 6 2 18 0 25 -3 6 -5 1 -5 -13z"/>
<path d="M2031 2964 c0 -11 3 -14 6 -6 3 7 2 16 -1 19 -3 4 -6 -2 -5 -13z"/>
<path d="M731 2814 c0 -11 3 -14 6 -6 3 7 2 16 -1 19 -3 4 -6 -2 -5 -13z"/>
<path d="M932 2810 c0 -14 2 -19 5 -12 2 6 2 18 0 25 -3 6 -5 1 -5 -13z"/>
<path d="M807 2813 c-4 -3 -7 -11 -7 -17 0 -6 5 -5 12 2 6 6 9 14 7 17 -3 3
-9 2 -12 -2z"/>
<path d="M361 2674 c0 -11 3 -14 6 -6 3 7 2 16 -1 19 -3 4 -6 -2 -5 -13z"/>
<path d="M932 2655 c0 -16 2 -22 5 -12 2 9 2 23 0 30 -3 6 -5 -1 -5 -18z"/>
<path d="M1460 2503 c0 -21 3 -24 9 -14 5 8 7 20 4 28 -8 21 -13 15 -13 -14z"/>
<path d="M1542 2505 c0 -16 2 -22 5 -12 2 9 2 23 0 30 -3 6 -5 -1 -5 -18z"/>
<path d="M1582 2505 c0 -16 2 -22 5 -12 2 9 2 23 0 30 -3 6 -5 -1 -5 -18z"/>
<path d="M242 2500 c0 -14 2 -19 5 -12 2 6 2 18 0 25 -3 6 -5 1 -5 -13z"/>
<path d="M291 2504 c0 -11 3 -14 6 -6 3 7 2 16 -1 19 -3 4 -6 -2 -5 -13z"/>
<path d="M771 2484 c0 -11 3 -14 6 -6 3 7 2 16 -1 19 -3 4 -6 -2 -5 -13z"/>
<path d="M1967 2493 c-4 -3 -7 -11 -7 -17 0 -6 5 -5 12 2 6 6 9 14 7 17 -3 3
-9 2 -12 -2z"/>
<path d="M1648 2483 c7 -3 16 -2 19 1 4 3 -2 6 -13 5 -11 0 -14 -3 -6 -6z"/>
<path d="M1170 2471 c0 -4 11 -6 25 -3 14 2 25 6 25 8 0 2 -11 4 -25 4 -14 0
-25 -4 -25 -9z"/>
<path d="M2038 2473 c6 -2 18 -2 25 0 6 3 1 5 -13 5 -14 0 -19 -2 -12 -5z"/>
<path d="M561 2334 c0 -11 3 -14 6 -6 3 7 2 16 -1 19 -3 4 -6 -2 -5 -13z"/>
<path d="M691 2334 c0 -11 3 -14 6 -6 3 7 2 16 -1 19 -3 4 -6 -2 -5 -13z"/>
<path d="M1160 2340 c0 -5 5 -10 11 -10 5 0 7 5 4 10 -3 6 -8 10 -11 10 -2 0
-4 -4 -4 -10z"/>
<path d="M1261 2334 c0 -11 3 -14 6 -6 3 7 2 16 -1 19 -3 4 -6 -2 -5 -13z"/>
<path d="M242 2180 c0 -14 2 -19 5 -12 2 6 2 18 0 25 -3 6 -5 1 -5 -13z"/>
<path d="M561 2178 c-1 -21 4 -28 17 -28 11 0 13 3 6 8 -7 4 -14 16 -17 27 -4
15 -5 14 -6 -7z"/>
<path d="M1461 2184 c0 -11 3 -14 6 -6 3 7 2 16 -1 19 -3 4 -6 -2 -5 -13z"/>
<path d="M2152 2175 c0 -16 2 -22 5 -12 2 9 2 23 0 30 -3 6 -5 -1 -5 -18z"/>
<path d="M522 2164 c-7 -8 -8 -14 -3 -14 10 0 25 19 20 25 -2 1 -10 -3 -17
-11z"/>
<path d="M892 2015 c0 -16 2 -22 5 -12 2 9 2 23 0 30 -3 6 -5 -1 -5 -18z"/>
<path d="M1012 2020 c0 -14 2 -19 5 -12 2 6 2 18 0 25 -3 6 -5 1 -5 -13z"/>
<path d="M361 2014 c0 -11 3 -14 6 -6 3 7 2 16 -1 19 -3 4 -6 -2 -5 -13z"/>
<path d="M235 1990 c3 -5 8 -10 11 -10 2 0 4 5 4 10 0 6 -5 10 -11 10 -5 0 -7
-4 -4 -10z"/>
<path d="M4038 2533 c-23 -6 -24 -58 -2 -67 26 -10 32 -7 27 15 -4 15 0 22 16
26 12 3 20 11 18 17 -4 12 -32 17 -59 9z"/>
<path d="M4167 2506 c10 -13 20 -20 21 -15 5 12 -17 39 -30 39 -5 0 -1 -11 9
-24z"/>
<path d="M3678 2506 c-10 -7 -18 -18 -18 -25 0 -6 -8 -11 -17 -11 -12 0 -14
-3 -7 -8 7 -4 14 -16 16 -27 2 -11 9 -19 15 -18 7 2 11 -19 12 -57 0 -33 2
-64 5 -68 3 -5 -2 -21 -10 -37 -19 -37 -30 -115 -16 -115 29 0 51 36 54 87 2
29 6 53 10 53 8 0 24 144 20 185 -1 17 -10 36 -19 43 -21 15 -24 15 -45 -2z"/>
<path d="M3635 1825 c21 -17 37 -15 43 3 2 8 -8 12 -30 12 -31 -1 -32 -1 -13
-15z"/>
<path d="M1550 1241 c-21 -41 -5 -97 30 -101 42 -6 50 0 50 35 0 24 -5 35 -15
35 -8 0 -15 -4 -15 -10 0 -5 5 -10 10 -10 16 0 12 -37 -5 -44 -20 -7 -55 28
-55 54 0 11 9 29 20 40 15 15 16 20 5 20 -8 0 -19 -9 -25 -19z"/>
<path d="M1608 1253 c7 -3 16 -2 19 1 4 3 -2 6 -13 5 -11 0 -14 -3 -6 -6z"/>
<path d="M1673 1200 c0 -36 2 -50 4 -32 2 17 2 47 0 65 -2 17 -4 3 -4 -33z"/>
<path d="M1738 1247 c6 -7 12 -35 15 -62 l3 -50 2 57 c1 34 7 58 15 61 6 3 -1
6 -17 6 -22 1 -26 -2 -18 -12z"/>
<path d="M1828 1254 c-12 -11 -10 -102 2 -109 6 -3 10 5 10 19 0 14 5 28 10
31 20 12 49 -6 53 -33 2 -15 4 2 5 38 0 41 -3 56 -7 40 -5 -17 -15 -26 -33
-28 -22 -3 -27 1 -30 23 -2 15 -6 23 -10 19z"/>
<path d="M1952 1213 c-2 -45 1 -55 22 -68 45 -30 71 3 63 81 -3 34 -4 33 -5
-13 -2 -40 -7 -55 -21 -62 -30 -16 -50 7 -54 64 l-3 50 -2 -52z"/>
<path d="M2080 1200 c0 -38 4 -60 11 -60 7 0 9 9 6 22 -4 12 -1 28 5 35 8 9 7
13 -2 13 -8 0 -10 8 -6 25 4 14 2 25 -4 25 -6 0 -10 -26 -10 -60z"/>
<path d="M2123 1254 c19 -6 24 -44 5 -44 -7 0 -5 -5 5 -11 9 -5 17 -16 17 -24
0 -8 -8 -19 -17 -25 -16 -10 -16 -10 2 -8 17 3 20 11 20 58 0 51 -2 55 -25 57
-14 1 -18 0 -7 -3z"/>
<path d="M1772 993 c-59 -39 -87 -114 -63 -175 11 -29 70 -88 89 -88 20 0 10
23 -15 34 -22 10 -48 45 -39 53 2 3 15 -2 28 -11 26 -18 38 -20 38 -6 0 5 -11
12 -24 16 -29 7 -38 36 -30 96 l6 44 88 -1 88 0 6 -35 c11 -69 7 -90 -19 -102
-20 -9 -25 -18 -25 -50 0 -44 2 -45 40 -18 87 62 76 201 -21 250 -53 27 -97
25 -147 -7z"/>
<path d="M288 1204 c-1 -31 0 -58 5 -61 4 -2 7 5 7 16 0 14 6 21 18 21 29 0
58 37 46 58 -6 9 -20 19 -30 20 -18 4 -18 3 0 -10 23 -18 17 -53 -9 -53 -16 0
-20 7 -20 33 0 54 -13 36 -17 -24z"/>
<path d="M400 1200 c0 -51 3 -60 18 -59 10 0 12 3 5 6 -21 8 -15 43 7 43 11 0
20 5 20 10 0 6 -9 10 -20 10 -33 0 -26 38 8 43 25 4 25 4 -5 6 l-33 1 0 -60z"/>
<path d="M510 1253 c38 -7 48 -22 26 -38 -17 -13 -17 -15 -3 -21 38 -14 5 -55
-37 -47 -21 4 -21 3 1 -6 11 -5 30 -7 41 -4 22 5 36 39 21 49 -5 3 -8 20 -6
37 2 30 0 32 -33 34 -23 1 -27 -1 -10 -4z"/>
<path d="M603 1200 c0 -36 2 -53 4 -37 5 32 30 36 35 5 2 -12 10 -23 18 -26
12 -4 13 -2 3 9 -20 20 -16 86 5 98 16 10 16 10 -1 11 -10 0 -22 -11 -27 -25
-13 -33 -28 -32 -33 3 -2 15 -4 -2 -4 -38z"/>
<path d="M703 1246 c26 -20 23 -80 -5 -99 -13 -9 -18 -16 -11 -16 22 -1 43 30
43 64 0 45 -9 65 -29 65 -14 -1 -14 -2 2 -14z"/>
<path d="M770 1231 c0 -16 -3 -44 -6 -62 -4 -26 -3 -30 5 -19 6 8 11 26 11 41
0 14 5 30 11 36 6 6 8 16 5 22 -13 20 -26 11 -26 -18z"/>
<path d="M847 1253 c-4 -3 -7 -18 -6 -32 0 -24 1 -24 9 -6 7 16 9 11 9 -22 1
-23 6 -45 13 -49 8 -5 9 6 5 41 -4 26 -7 54 -7 61 0 15 -12 18 -23 7z"/>
<path d="M918 1253 c-9 -19 -2 -107 8 -110 7 -2 10 6 7 22 -4 20 -1 25 16 25
11 0 21 5 21 10 0 6 -9 10 -20 10 -29 0 -27 37 3 43 19 4 19 4 -5 6 -15 0 -28
-2 -30 -6z"/>
<path d="M802 1210 c0 -8 3 -26 8 -40 6 -22 8 -23 15 -6 5 10 4 21 -2 25 -6 3
-13 13 -16 21 -5 13 -5 13 -5 0z"/>
<path d="M218 918 c-2 -57 0 -111 4 -121 8 -16 23 -17 146 -15 l137 3 3 118 3
117 -145 0 -144 0 -4 -102z m173 -4 l6 -29 4 30 c6 42 24 33 24 -12 0 -34 -3
-38 -27 -41 -18 -2 -28 1 -28 10 0 10 -2 10 -9 -1 -8 -12 -12 -12 -25 -2 -12
10 -16 10 -16 2 0 -7 -4 -9 -10 -6 -5 3 -10 24 -10 45 l0 38 43 -2 c38 -2 43
-6 48 -32z"/>
<path d="M762 903 l3 -118 135 0 135 0 5 85 c3 47 4 100 2 118 l-3 32 -140 0
-140 0 3 -117z m168 27 c7 -10 10 -11 10 -2 0 6 5 12 10 12 6 0 10 -18 10 -40
0 -29 -4 -40 -15 -40 -8 0 -15 5 -15 11 0 7 -4 8 -12 2 -17 -12 -78 -17 -80
-6 -6 31 -4 69 4 74 17 11 79 3 88 -11z"/>
<path d="M875 920 c3 -5 8 -10 11 -10 2 0 4 5 4 10 0 6 -5 10 -11 10 -5 0 -7
-4 -4 -10z"/>
<path d="M870 890 c0 -5 4 -10 9 -10 6 0 13 5 16 10 3 6 -1 10 -9 10 -9 0 -16
-4 -16 -10z"/>
</g>
</svg>
